<?xml version="1.0" encoding="utf-8"?>
<!-- Uploaded to: SVG Repo, www.svgrepo.com, Generator: SVG Repo Mixer Tools -->
<svg width="800px" height="800px" viewBox="0 0 1024 1024" class="icon"  version="1.1" xmlns="http://www.w3.org/2000/svg"><path d="M370.1 737.5l13.7 7.3c15.6 8.2 33 15.6 51.3 21.1l14.7 4.6v68.7c0 16.5 11 20.2 20.2 20.2h82.4c9.2 0 20.2-3.7 20.2-20.2v-68.7l14.7-4.6c18.3-5.5 35.7-12.8 51.3-21.1l13.7-7.3 11 11c19.2 19.2 32.1 33 37.6 36.6 4.6 4.6 9.2 7.3 13.7 7.3 8.2 0 15.6-6.4 15.6-7.3l58.6-58.6c6.4-6.4 11.9-17.4 0-29.3l-48.5-48.5 7.3-13.7c8.2-15.6 15.6-33 21.1-51.3l4.6-14.7H842c16.5 0 20.2-11 20.2-20.2v-82.4c0-9.2-3.7-20.2-20.2-20.2h-68.7l-4.6-14.7c-6.4-17.4-12.8-34.8-22-50.4l-7.3-13.7 11-11 37.6-37.6c4.6-4.6 7.3-9.2 7.3-13.7 0-6.4-4.6-12.8-7.3-15.6L729.2 231c-1.8-1.8-8.2-7.3-15.6-7.3-4.6 0-9.2 1.8-13.7 7.3l-48.5 48.5-13.7-7.3c-15.6-8.2-33-15.6-50.4-21.1l-14.7-3.7v-69.6c0-17.4-14.7-20.2-21.1-20.2H470c-6.4 0-20.2 2.7-20.2 20.2v69.6l-14.7 4.6c-17.4 5.5-34.8 11.9-50.4 21.1l-13.7 7.3-49.4-49.4c-4.6-4.6-9.2-6.4-12.8-6.4-7.3 0-14.7 5.5-16.5 7.3l-58.6 57.7c-3.7 4.6-12.8 16.5 0 29.3l48.5 48.6-7.3 13.7c-8.2 15.6-15.6 33-21.1 50.4l-4.6 14.7h-68.7c-16.5 0.9-20.2 13.7-20.2 22v81.5c0 6.4 2.7 20.2 20.2 20.2h68.7l4.6 14.7c5.5 18.3 12.8 34.8 21.1 51.3l7.3 13.7-48.5 48.5c-11.9 11.9-4.6 23.8 0 29.3l57.7 57.7c1.8 0.9 9.2 6.4 15.6 6.4 4.6 0 8.2-1.8 12.8-6.4l50.3-47.7z" fill="#FFFFFF" /><path d="M496.4 699.1h-0.8c-3.5-0.3-7-0.7-10.5-1.1-5.5-0.7-9.3-5.8-8.6-11.3s5.8-9.3 11.3-8.6c3.1 0.4 6.3 0.8 9.4 1 5.5 0.4 9.6 5.3 9.2 10.8-0.5 5.3-4.9 9.2-10 9.2z m39.8-1.1c-4.9 0-9.2-3.6-9.9-8.6-0.8-5.5 3.1-10.5 8.5-11.3 3.1-0.4 6.2-0.9 9.3-1.5 5.4-1.1 10.7 2.5 11.7 7.9s-2.5 10.7-7.9 11.7c-3.4 0.7-6.9 1.3-10.4 1.7-0.3 0.1-0.8 0.1-1.3 0.1z m-88.5-9.7c-1.2 0-2.3-0.2-3.5-0.6-3.3-1.2-6.6-2.6-9.8-4-5.1-2.2-7.4-8.1-5.1-13.2 2.2-5.1 8.1-7.4 13.2-5.1 2.9 1.3 5.8 2.5 8.8 3.6 5.2 1.9 7.8 7.7 5.9 12.9-1.6 3.9-5.4 6.4-9.5 6.4z m136.5-3.8c-3.8 0-7.5-2.2-9.2-6-2.2-5.1 0.1-11 5.1-13.2 2.9-1.3 5.7-2.6 8.5-4 4.9-2.5 10.9-0.5 13.4 4.4s0.5 10.9-4.4 13.4c-3.1 1.6-6.3 3.1-9.5 4.5-1.2 0.6-2.5 0.9-3.9 0.9z m-180.3-19.9c-2.1 0-4.1-0.6-5.9-1.9-2.8-2.1-5.6-4.3-8.3-6.5-4.3-3.5-4.9-9.8-1.4-14.1 3.5-4.3 9.8-4.9 14.1-1.4 2.4 2 4.9 4 7.5 5.8 4.5 3.3 5.4 9.5 2.1 14-2 2.7-5.1 4.1-8.1 4.1z m222.7-6.3c-2.9 0-5.7-1.2-7.7-3.6-3.5-4.3-2.9-10.6 1.3-14.1 2.4-2 4.8-4.1 7.1-6.2 4.1-3.7 10.4-3.5 14.1 0.6 3.7 4.1 3.5 10.4-0.6 14.1-2.6 2.4-5.2 4.7-7.9 6.9-1.8 1.6-4.1 2.3-6.3 2.3z m-258.5-28.4c-3 0-5.9-1.3-7.9-3.8-2.2-2.8-4.3-5.6-6.3-8.5-3.2-4.5-2-10.8 2.5-13.9 4.5-3.2 10.8-2 13.9 2.5 1.8 2.6 3.7 5.1 5.6 7.6 3.4 4.4 2.6 10.6-1.7 14-1.8 1.4-3.9 2.1-6.1 2.1z m292.2-8.2c-2 0-4-0.6-5.7-1.8-4.5-3.1-5.7-9.4-2.5-13.9 1.8-2.6 3.5-5.2 5.2-7.9 2.9-4.7 9.1-6.2 13.8-3.3 4.7 2.9 6.2 9.1 3.3 13.8-1.8 3-3.8 5.9-5.8 8.8-2 2.8-5.1 4.3-8.3 4.3z m-317.2-34.9c-3.9 0-7.7-2.3-9.3-6.2-1.3-3.2-2.6-6.6-3.7-9.9-1.8-5.2 1-10.9 6.2-12.7 5.2-1.8 10.9 1 12.7 6.2 1 3 2.1 5.9 3.3 8.8 2.1 5.1-0.4 11-5.5 13-1.1 0.5-2.4 0.8-3.7 0.8z m339.8-9.6c-1.1 0-2.2-0.2-3.2-0.5-5.2-1.8-8-7.5-6.2-12.7 1-3 2-6 2.8-9 1.5-5.3 7-8.4 12.3-6.9 5.3 1.5 8.4 7 6.9 12.3-1 3.4-2 6.8-3.1 10.1-1.5 4.1-5.4 6.7-9.5 6.7z m-352-38.7c-5 0-9.4-3.8-9.9-8.9-0.4-3.5-0.7-7-0.9-10.5-0.3-5.5 3.9-10.2 9.4-10.5 5.5-0.3 10.2 3.9 10.5 9.4 0.2 3.1 0.4 6.3 0.8 9.4 0.6 5.5-3.3 10.4-8.8 11-0.4 0.1-0.8 0.1-1.1 0.1z m361.5-10.2h-0.6c-5.5-0.3-9.7-5-9.4-10.5 0.2-3.1 0.3-6.3 0.3-9.4 0-5.5 4.5-10 10-10s10 4.5 10 10c0 3.5-0.1 7-0.3 10.5-0.3 5.3-4.7 9.4-10 9.4z m-360.2-39.6c-0.5 0-1.1 0-1.6-0.1-5.5-0.9-9.1-6-8.2-11.5 0.6-3.5 1.2-6.9 2-10.4 1.2-5.4 6.5-8.8 11.9-7.6 5.4 1.2 8.8 6.5 7.6 11.9-0.7 3.1-1.3 6.2-1.8 9.3-0.9 4.9-5.1 8.4-9.9 8.4z m357.9-0.8c-4.8 0-9-3.5-9.8-8.3-0.5-3.1-1.1-6.2-1.8-9.3-1.2-5.4 2.2-10.7 7.5-12 5.4-1.2 10.7 2.2 12 7.5 0.8 3.4 1.5 6.9 2 10.4 0.9 5.4-2.8 10.6-8.2 11.5-0.6 0.2-1.1 0.2-1.7 0.2z m-343.2-46.8c-1.4 0-2.9-0.3-4.3-1-5-2.4-7.1-8.3-4.8-13.3 1.5-3.2 3.1-6.3 4.8-9.4 2.6-4.9 8.7-6.7 13.6-4 4.9 2.6 6.7 8.7 4 13.6-1.5 2.8-2.9 5.6-4.3 8.4-1.6 3.6-5.2 5.7-9 5.7z m328.2-0.7c-3.7 0-7.3-2.1-9-5.7-1.3-2.8-2.8-5.7-4.3-8.4-2.6-4.8-0.9-10.9 4-13.6 4.8-2.6 10.9-0.9 13.6 4 1.7 3.1 3.3 6.2 4.8 9.4 2.4 5 0.3 11-4.7 13.3-1.5 0.7-2.9 1-4.4 1z m-300.9-41.1c-2.3 0-4.7-0.8-6.6-2.5-4.2-3.6-4.6-9.9-1-14.1 2.3-2.6 4.7-5.3 7.1-7.8 3.8-4 10.2-4.1 14.1-0.2 4 3.8 4.1 10.2 0.2 14.1-2.2 2.2-4.3 4.6-6.4 7-1.8 2.4-4.6 3.5-7.4 3.5z m273.6-0.5c-2.8 0-5.5-1.2-7.5-3.4-2.1-2.4-4.2-4.7-6.4-6.9-3.9-4-3.8-10.3 0.2-14.1 3.9-3.9 10.3-3.8 14.1 0.2 2.4 2.5 4.9 5.1 7.2 7.7 3.6 4.2 3.2 10.5-0.9 14.1-2.1 1.6-4.4 2.4-6.7 2.4z m-236.1-32.3c-3.3 0-6.4-1.6-8.4-4.5-3-4.6-1.7-10.8 2.9-13.8 2.9-1.9 5.9-3.8 9-5.5 4.8-2.8 10.9-1.1 13.7 3.6 2.8 4.8 1.2 10.9-3.6 13.7-2.7 1.6-5.4 3.2-8 5-1.8 1-3.7 1.5-5.6 1.5z m198.4-0.3c-1.9 0-3.8-0.5-5.4-1.6-2.6-1.7-5.3-3.4-8.1-4.9-4.8-2.8-6.4-8.9-3.7-13.7s8.9-6.4 13.7-3.7c3 1.7 6.1 3.6 9 5.5 4.6 3 5.9 9.2 2.9 13.8-1.9 3-5.1 4.6-8.4 4.6z m-153.4-21c-4.3 0-8.2-2.7-9.5-7-1.7-5.3 1.3-10.9 6.5-12.5 3.3-1.1 6.8-2 10.1-2.9 5.4-1.4 10.8 1.9 12.2 7.2 1.4 5.4-1.9 10.8-7.2 12.2-3 0.8-6.1 1.6-9.1 2.6-1 0.2-2 0.4-3 0.4zM565 345c-1 0-2-0.1-3-0.5-3-0.9-6-1.8-9.1-2.5-5.4-1.3-8.6-6.8-7.3-12.1 1.3-5.4 6.8-8.6 12.1-7.3 3.4 0.9 6.8 1.8 10.2 2.8 5.3 1.6 8.2 7.2 6.6 12.5-1.3 4.3-5.2 7.1-9.5 7.1z m-59.2-8.1c-5.4 0-9.8-4.3-10-9.7-0.2-5.5 4.2-10.1 9.7-10.3 3.5-0.1 7.1-0.1 10.5 0 5.5 0.1 9.9 4.7 9.7 10.3-0.1 5.4-4.6 9.7-10 9.7h-0.3c-3.1-0.1-6.3-0.1-9.5 0h-0.1z" fill="#005BFF" /><path d="M552.4 879.1H470c-24 0-40.2-16.1-40.2-40.2v-54l-0.5-0.2c-18.8-5.7-37.2-13.2-54.8-22.5l-1.1-0.6-39.7 37.6c-5.3 5.2-13.8 12.1-26.8 12.1-10.9 0-20.1-5.7-24.5-8.5-0.2-0.1-0.3-0.2-0.5-0.3l-2.4-1.2-60.6-60.6-0.6-0.7c-15.2-18.2-14.7-40.3 1.2-56.3l38.1-38.1-0.6-1.1c-7-13.9-15.8-32.6-22.3-54.4l-0.2-0.5h-54c-27.6 0-40.2-20.8-40.2-40.2V468c0-19.8 12.1-40.5 39-42h55.1l0.2-0.6c5.8-18.4 13.6-36.9 22.5-53.8l0.4-0.7-38.1-38.1c-6-6-23.9-27.9-1.5-56l0.7-0.9 59.5-58.5c1.4-1.4 13.9-13.1 30.5-13.1 9.5 0 19.1 4.4 27 12.3l39 39 0.3-0.2c18.4-10.8 38.6-17.8 54.1-22.7l0.7-0.2v-54.9c0-27.6 20.8-40.2 40.2-40.2h81.5c5 0 14.6 0.9 23.7 6.7 11.2 7.2 17.3 19 17.3 33.4v54l0.7 0.2c18.3 5.8 36.9 13.5 53.7 22.5l0.7 0.4 37.5-37.5c9.8-11.3 20.9-13.8 28.4-13.8 15.3 0 26.6 10.1 29.7 13.2l58.6 58.6c6.4 6.4 13.2 17.5 13.2 29.7 0 9.8-4.4 19.1-13.2 27.9l-38.1 38.1 0.2 0.3c10 17 16.7 35.4 23.3 53.2l0.5 1.6h54c24 0 40.2 16.1 40.2 40.2v82.4c0 24-16.1 40.2-40.2 40.2h-54l-0.2 0.5c-5.7 18.8-13.2 37.3-22.5 54.8l-0.4 0.7 38.1 38.1c9.7 9.7 14.2 21.6 12.5 33.6-1.2 8.7-5.5 17-12.5 24L745.3 798c-7.1 9-20.5 14.2-30.8 14.2-9.3 0-18.2-4-26.6-11.9-5.2-3.9-11.7-10.5-24.5-23.4-4.3-4.3-9.1-9.2-14.3-14.5l-0.5-0.5-0.7 0.4c-17.6 9.3-36 16.9-54.8 22.5l-0.5 0.2v54c0 24-16.2 40.1-40.2 40.1z m-82.4-38z m-0.2-2h82.6V755.5l28.9-9c16.4-4.9 32.4-11.5 47.7-19.6l26.8-14.3 21.5 21.5c5.4 5.4 10.2 10.3 14.5 14.7 8.5 8.7 17.4 17.6 20 19.5l1.7 1.1 1.3 1.4 0.5 0.5 59.1-59.1c0.2-0.2 0.3-0.4 0.5-0.5-0.1-0.2-0.3-0.3-0.5-0.5l-59-59 14.3-26.8c8.1-15.2 14.6-31.3 19.6-47.6l0.1-0.2 9-28.7H842v-82.5-0.1H758.4l-8.8-28.2c-6.2-16.9-12.1-32.8-20.3-46.7l-0.4-0.7-14.3-26.8 59-59 0.5-0.5c-0.2-0.2-0.3-0.4-0.5-0.6L715 245.2c-0.2-0.1-0.3-0.3-0.6-0.5L655 303.9l-26.8-14.3c-14.5-7.7-30.6-14.4-46.4-19.5l-29.2-7.3v-85.2-0.1c-0.4-0.1-0.7-0.1-1.1-0.1H470h-0.1V261.8l-28.7 9c-13.6 4.3-31.2 10.4-46.2 19.2l-0.7 0.4-26.8 14.3-59.7-59.7c-0.6 0.3-1.1 0.7-1.5 1l-57.5 56.6c-0.5 0.6-0.8 1.1-1.1 1.5l0.3 0.3 59 59-14.3 26.8c-7.8 14.7-14.6 30.9-19.6 47l-8.9 28.6h-82.7c-0.2 0-0.4 0.1-0.6 0.1-0.1 0.5-0.2 1.1-0.2 1.9v81.6h83.5l9 28.9c4.4 14.6 10.5 29.4 19.7 47.9l14.2 26.6-59 59-0.3 0.3c0.2 0.4 0.5 0.9 1 1.5l55.2 55.2c0.6 0.3 1.4 0.9 2.3 1.3l60.8-57.5 26.4 14.1c15.2 8.1 31.3 14.6 47.6 19.6l0.2 0.1 28.7 9V839c-0.2 0-0.2 0.1-0.2 0.1z m-187.4-36.3z m-35.5-89.7z m529.1-0.3zM246.8 303.3z m59.6-57.5l-0.2 0.2c0.1-0.1 0.2-0.1 0.2-0.2z m3-1.5z m-3.2-0.4z m406.5-0.6z m3.4-0.6z" fill="#005BFF" /><path d="M655.5 607.1l-11-10.2 3.6-6.8c26.9-50.8 17.1-114.6-23.8-155.1-33.6-33.3-82.1-45.7-127-33.5l78.8 78c18.1 17.9 18.2 47.2 0.3 65.3l-28 28.3c-8.7 8.8-20.2 13.6-32.6 13.7h-0.2c-12.2 0-23.8-4.7-32.5-13.4l-78.8-78c-11.7 45 1.2 93.4 34.8 126.7 40.9 40.5 104.8 49.6 155.3 22.2l6.8-3.7 182.1 192.8c5.6 6 13.2 9.3 21.4 9.4 8.2 0.1 15.9-3.1 21.6-8.9l13.8-13.9c5.8-5.8 8.8-13.5 8.7-21.7-0.2-8.2-3.6-15.8-9.6-21.3l-180-166.6-3.7-3.3z" fill="#E6E6E6" /><path d="M669.2 592.5c12.3-26.6 16.8-56.8 12.5-85.9 4.3 29.2-0.2 59.4-12.5 85.9zM866.9 785.5c0.4 1.6 0.8 3.2 1.1 4.9-0.3-1.7-0.6-3.3-1.1-4.9zM672.7 595.8l-3.5-3.3zM655.5 607.1l3.6 3.4-3.6-3.4zM655.5 607.1l-11-10.2 11 10.2z" fill="#005BFF" /><path d="M868 790.4c-0.3-1.6-0.7-3.3-1.1-4.9-0.3-1.1-0.6-2.2-1-3.3-2.7-7.5-7.1-14.3-13.1-19.9l-180-166.6-3.5-3.2c12.3-26.6 16.8-56.8 12.5-85.9-4.8-32.8-19.8-62.4-43.4-85.8-43.1-42.6-107.2-55.5-163.4-32.8l-14.1 5.7 101.1 100c5 4.9 7.7 11.5 7.8 18.5 0 7-2.7 13.6-7.6 18.5l-28 28.3c-4.9 5-11.5 7.7-18.5 7.8h-0.1c-6.9 0-13.5-2.7-18.4-7.6L396 459.2l-5.5 14.2c-22.1 56.4-8.5 120.4 34.6 163 23.6 23.4 53.4 38 86.2 42.5 29.2 3.9 59.3-0.8 85.8-13.4l171.7 181.8c9.4 9.9 22.1 15.5 35.7 15.6h0.6c13.4 0 26-5.2 35.5-14.8l13.8-13.9c9.6-9.7 14.7-22.6 14.4-36.2-0.1-2.6-0.3-5.2-0.8-7.6z m-63.3 52.5c-8.2-0.1-15.8-3.4-21.4-9.4L601.2 640.7l-6.8 3.7c-50.5 27.4-114.4 18.3-155.3-22.2-33.6-33.3-46.5-81.6-34.8-126.7l78.8 78c8.7 8.6 20.2 13.4 32.5 13.4h0.2c12.3-0.1 23.9-4.9 32.6-13.7l28-28.3c17.9-18.1 17.8-47.4-0.3-65.3l-78.8-78c44.9-12.2 93.4 0.2 127 33.5 40.9 40.5 50.7 104.2 23.8 155.1l-3.6 6.8 11 10.2 3.6 3.4 180 166.6c6 5.6 9.4 13.1 9.6 21.3 0.2 8.2-2.9 15.9-8.7 21.7L826.3 834c-5.7 5.8-13.4 8.9-21.6 8.9z" fill="#005BFF" /><path d="M838.5 772.8c-2.4 0-4.9-0.9-6.8-2.7L668.1 618.7c-4.1-3.8-4.3-10.1-0.5-14.1 3.8-4.1 10.1-4.3 14.1-0.5l163.6 151.4c4.1 3.8 4.3 10.1 0.5 14.1-2 2.1-4.7 3.2-7.3 3.2z" fill="#06F3FF" /></svg>