<?xml version="1.0" encoding="UTF-8" standalone="no"?>
<!-- Created with Inkscape (http://www.inkscape.org/) -->

<svg
        width="54.137215mm"
        height="15.668588mm"
        viewBox="0 0 54.137214 15.668588"
        version="1.1"
        id="svg5"
        inkscape:export-filename="favicon.svg"
        inkscape:export-xdpi="400.06485"
        inkscape:export-ydpi="400.06485"
        sodipodi:docname="favicon-wide.svg"
        inkscape:version="1.2.2 (b0a8486541, 2022-12-01)"
        xmlns:inkscape="http://www.inkscape.org/namespaces/inkscape"
        xmlns:sodipodi="http://sodipodi.sourceforge.net/DTD/sodipodi-0.dtd"
        xmlns:xlink="http://www.w3.org/1999/xlink"
        xmlns="http://www.w3.org/2000/svg"
>
  <sodipodi:namedview
     id="namedview7"
     pagecolor="#ffffff"
     bordercolor="#666666"
     borderopacity="1.0"
     inkscape:pageshadow="2"
     inkscape:pageopacity="0.0"
     inkscape:pagecheckerboard="0"
     inkscape:document-units="mm"
     showgrid="false"
     inkscape:zoom="5.1316364"
     inkscape:cx="116.14229"
     inkscape:cy="44.332837"
     inkscape:window-width="2560"
     inkscape:window-height="1403"
     inkscape:window-x="3840"
     inkscape:window-y="0"
     inkscape:window-maximized="1"
     inkscape:current-layer="g916"
     fit-margin-top="0"
     fit-margin-left="0"
     fit-margin-right="0"
     fit-margin-bottom="0"
     showguides="true"
     inkscape:guide-bbox="true"
     inkscape:showpageshadow="2"
     inkscape:deskcolor="#d1d1d1" />
  <defs
     id="defs2">
    <linearGradient
       inkscape:collect="always"
       id="linearGradient37147">
      <stop
         style="stop-color:#6948e8;stop-opacity:1"
         offset="0"
         id="stop37143" />
      <stop
         style="stop-color:#9379f5;stop-opacity:1"
         offset="1"
         id="stop37145" />
    </linearGradient>
    <linearGradient
       inkscape:collect="always"
       xlink:href="#linearGradient37147"
       id="linearGradient37149-5"
       x1="197.95337"
       y1="200.584"
       x2="42.395298"
       y2="31.763771"
       gradientUnits="userSpaceOnUse"
       gradientTransform="matrix(0.31598688,0,0,0.31598688,28.637086,74.676847)" />
  </defs>
  <g
     inkscape:label="Layer 1"
     inkscape:groupmode="layer"
     id="layer1"
     transform="translate(-81.665951,-131.78956)">
    <g
       id="g21630"
       transform="translate(4.3159573)">
      <g
         id="g21643"
         transform="translate(1.0671615)">
        <g
           id="g21836"
           transform="translate(1.368642)">
          <g
             id="g916"
             transform="translate(-0.64652224)">
            <g
               aria-label="Bracket"
               id="text1989"
               style="font-size:10.5833px;line-height:1.25;fill:#7957f5;stroke-width:0.265">
              <path
                 d="m 96.333208,142.30936 q 0.380999,0 0.624415,-0.0899 0.248707,-0.0953 0.396874,-0.24871 0.148166,-0.15346 0.206374,-0.34925 0.05821,-0.20108 0.05821,-0.41275 0,-0.23283 -0.06879,-0.41804 -0.06879,-0.18521 -0.22225,-0.31221 -0.153457,-0.13229 -0.402165,-0.20108 -0.243416,-0.0688 -0.603248,-0.0688 h -1.349371 v 2.10078 z m -1.359954,-5.2546 v 2.07432 h 1.042455 q 0.333374,0 0.592665,-0.0529 0.259291,-0.0582 0.433915,-0.17992 0.174625,-0.12171 0.264583,-0.3175 0.09525,-0.20108 0.09525,-0.48154 0,-0.28575 -0.07937,-0.48683 -0.07408,-0.20108 -0.232833,-0.32279 -0.158749,-0.12171 -0.402165,-0.17463 -0.243416,-0.0582 -0.57679,-0.0582 z m 1.137705,-1.2065 q 0.772581,0 1.317621,0.14817 0.550331,0.14287 0.894289,0.41274 0.349248,0.26459 0.507998,0.64559 0.158749,0.38099 0.158749,0.85195 0,0.26458 -0.07937,0.508 -0.07408,0.24342 -0.238125,0.46037 -0.158749,0.21167 -0.412748,0.38629 -0.253999,0.17463 -0.603248,0.29634 0.783164,0.1852 1.158871,0.60324 0.375707,0.41804 0.375707,1.08479 0,0.48683 -0.190499,0.90487 -0.185208,0.41804 -0.54504,0.72496 -0.359832,0.30692 -0.888997,0.48154 -0.523874,0.16933 -1.206497,0.16933 h -2.973907 v -7.67818 z"
                 style="font-weight:800;font-family:Lato;-inkscape-font-specification:'Lato, Ultra-Bold'"
                 id="path258" />
              <path
                 d="m 101.48197,138.97033 q 0.25929,-0.46566 0.59796,-0.73554 0.33867,-0.26987 0.79375,-0.26987 0.37041,0 0.60325,0.17462 l -0.0952,1.0795 q -0.0265,0.10583 -0.0847,0.14817 -0.0529,0.037 -0.14817,0.037 -0.0847,0 -0.24341,-0.0212 -0.15875,-0.0265 -0.29633,-0.0265 -0.20109,0 -0.35984,0.0582 -0.15345,0.0582 -0.27516,0.16404 -0.12171,0.10584 -0.22225,0.25929 -0.0953,0.15346 -0.17992,0.34925 v 3.33903 h -1.46049 v -5.45569 h 0.86254 q 0.22224,0 0.30691,0.0794 0.0847,0.0794 0.12171,0.27516 z"
                 style="font-weight:800;font-family:Lato;-inkscape-font-specification:'Lato, Ultra-Bold'"
                 id="path260" />
              <path
                 d="m 106.89004,141.24574 q -0.53445,0.0265 -0.88899,0.0952 -0.35455,0.0635 -0.56621,0.16933 -0.20638,0.10584 -0.29633,0.24342 -0.0847,0.13229 -0.0847,0.29104 0,0.3175 0.17462,0.44979 0.17992,0.13229 0.49742,0.13229 0.36512,0 0.62971,-0.127 0.26987,-0.13229 0.53445,-0.40745 z m -2.9739,-2.41828 q 0.48154,-0.43392 1.06362,-0.64558 0.58208,-0.21696 1.25941,-0.21696 0.48683,0 0.86783,0.15875 0.38629,0.15875 0.65087,0.4445 0.26988,0.28046 0.41275,0.67204 0.14288,0.39158 0.14288,0.85724 v 3.42899 h -0.66675 q -0.20638,0 -0.3175,-0.0582 -0.10583,-0.0582 -0.17463,-0.24342 l -0.11641,-0.34925 q -0.20638,0.17992 -0.40217,0.3175 -0.1905,0.13758 -0.39687,0.23283 -0.20637,0.09 -0.4445,0.13759 -0.23283,0.0476 -0.52387,0.0476 -0.35983,0 -0.65617,-0.0952 -0.29633,-0.0952 -0.51329,-0.28046 -0.21166,-0.1905 -0.32808,-0.47095 -0.11642,-0.28046 -0.11642,-0.64559 0,-0.30162 0.15346,-0.60324 0.15346,-0.30163 0.52388,-0.54504 0.3757,-0.24871 0.99483,-0.40746 0.62441,-0.16404 1.56103,-0.18521 v -0.28046 q 0,-0.51329 -0.21696,-0.75141 -0.21695,-0.24342 -0.62441,-0.24342 -0.30162,0 -0.50271,0.0741 -0.20108,0.0688 -0.35454,0.15346 -0.14816,0.0794 -0.28045,0.15345 -0.1323,0.0688 -0.30692,0.0688 -0.15346,0 -0.25929,-0.0741 -0.10054,-0.0794 -0.16933,-0.18521 z"
                 style="font-weight:800;font-family:Lato;-inkscape-font-specification:'Lato, Ultra-Bold'"
                 id="path262" />
              <path
                 d="m 113.41464,139.28783 q -0.0635,0.0847 -0.127,0.13229 -0.0635,0.0423 -0.17992,0.0423 -0.10583,0 -0.20637,-0.0582 -0.0952,-0.0635 -0.22225,-0.13229 -0.127,-0.0741 -0.30163,-0.13229 -0.17462,-0.0635 -0.43391,-0.0635 -0.32808,0 -0.5715,0.1217 -0.23812,0.11642 -0.39687,0.33867 -0.15875,0.22225 -0.23813,0.53975 -0.0741,0.3175 -0.0741,0.71437 0,0.83608 0.33337,1.28058 0.33867,0.4445 0.92075,0.4445 0.20108,0 0.34396,-0.0317 0.14816,-0.037 0.254,-0.09 0.11112,-0.0529 0.1905,-0.11642 0.0794,-0.0635 0.14816,-0.11641 0.0741,-0.0529 0.14288,-0.0847 0.0741,-0.037 0.16404,-0.037 0.16933,0 0.26458,0.127 l 0.41804,0.52916 q -0.23283,0.26988 -0.49741,0.44979 -0.26459,0.17463 -0.55034,0.28046 -0.28045,0.10054 -0.57149,0.13759 -0.29104,0.0423 -0.57679,0.0423 -0.50271,0 -0.9525,-0.18521 -0.44979,-0.1905 -0.78846,-0.55033 -0.33866,-0.35983 -0.53974,-0.88371 -0.1958,-0.52387 -0.1958,-1.19591 0,-0.59796 0.17463,-1.11125 0.17462,-0.51329 0.51329,-0.88899 0.33866,-0.37571 0.83608,-0.58738 0.50271,-0.21695 1.15887,-0.21695 0.62442,0 1.09537,0.20108 0.47096,0.20108 0.84667,0.58208 z"
                 style="font-weight:800;font-family:Lato;-inkscape-font-specification:'Lato, Ultra-Bold'"
                 id="path264" />
              <path
                 d="m 116.03929,135.63659 v 4.47674 h 0.24341 q 0.13759,0 0.21696,-0.037 0.0794,-0.0423 0.15875,-0.14817 l 1.2065,-1.60866 q 0.09,-0.12171 0.20108,-0.18521 0.11642,-0.0635 0.29104,-0.0635 h 1.3335 l -1.56633,1.98966 q -0.18521,0.24871 -0.42863,0.39158 0.12171,0.0847 0.21167,0.1958 0.09,0.11112 0.17462,0.2487 l 1.68804,2.62995 h -1.31233 q -0.16933,0 -0.29104,-0.0529 -0.12171,-0.0582 -0.20108,-0.20109 l -1.22766,-2.00553 q -0.0741,-0.127 -0.15346,-0.16404 -0.0794,-0.037 -0.23813,-0.037 h -0.30691 v 2.46061 h -1.4605 v -7.88985 z"
                 style="font-weight:800;font-family:Lato;-inkscape-font-specification:'Lato, Ultra-Bold'"
                 id="path266" />
              <path
                 d="m 123.54814,140.15566 q 0,-0.22754 -0.0635,-0.43391 -0.0582,-0.20638 -0.1905,-0.36513 -0.13229,-0.15875 -0.33337,-0.2487 -0.20109,-0.0952 -0.48154,-0.0952 -0.52388,0 -0.82021,0.29633 -0.29633,0.29633 -0.38629,0.84666 z m -2.29658,0.86783 q 0.0688,0.76729 0.43392,1.12183 0.37042,0.35454 0.96308,0.35454 0.30162,0 0.51858,-0.0688 0.22225,-0.0741 0.38629,-0.15875 0.16934,-0.09 0.30163,-0.15875 0.13758,-0.0741 0.26987,-0.0741 0.16933,0 0.26458,0.127 l 0.42334,0.52916 q -0.23284,0.26988 -0.51329,0.44979 -0.28046,0.17463 -0.58209,0.28046 -0.30162,0.10054 -0.60854,0.13759 -0.30691,0.0423 -0.59266,0.0423 -0.5715,0 -1.06891,-0.18521 -0.49213,-0.1905 -0.86254,-0.55562 -0.36513,-0.37042 -0.57679,-0.91546 -0.21167,-0.54504 -0.21167,-1.2647 0,-0.55563 0.17992,-1.04775 0.1852,-0.49212 0.52916,-0.85725 0.34396,-0.36512 0.83608,-0.57679 0.49213,-0.21695 1.11125,-0.21695 0.52387,0 0.96308,0.16933 0.4445,0.16404 0.762,0.48154 0.32279,0.3175 0.49741,0.78316 0.17992,0.46038 0.17992,1.05304 0,0.16404 -0.0159,0.26988 -0.0159,0.10583 -0.0529,0.16933 -0.037,0.0635 -0.10054,0.09 -0.0635,0.0212 -0.16405,0.0212 z"
                 style="font-weight:800;font-family:Lato;-inkscape-font-specification:'Lato, Ultra-Bold'"
                 id="path268" />
              <path
                 d="m 127.58565,143.61111 q -0.37041,0 -0.65616,-0.10583 -0.28575,-0.11113 -0.48154,-0.31221 -0.19579,-0.20108 -0.29633,-0.48683 -0.10054,-0.28575 -0.10054,-0.64558 v -2.94216 h -0.51329 q -0.11642,0 -0.20109,-0.0741 -0.0794,-0.0741 -0.0794,-0.22225 v -0.5715 l 0.87312,-0.15875 0.29633,-1.41287 q 0.0582,-0.23813 0.32279,-0.23813 h 0.762 v 1.66158 h 1.40758 v 1.016 h -1.40758 v 2.84691 q 0,0.22754 0.10583,0.35983 0.11113,0.13229 0.31221,0.13229 0.10584,0 0.17992,-0.0212 0.0741,-0.0265 0.127,-0.0529 0.0529,-0.0318 0.0953,-0.0529 0.0476,-0.0265 0.0952,-0.0265 0.0635,0 0.10583,0.0318 0.0423,0.0265 0.0847,0.0952 l 0.4392,0.6985 q -0.30162,0.23812 -0.68262,0.35983 -0.381,0.12171 -0.78846,0.12171 z"
                 style="font-weight:800;font-family:Lato;-inkscape-font-specification:'Lato, Ultra-Bold'"
                 id="path270" />
            </g>
            <g
               id="g21743"
               transform="matrix(0.17750543,0,0,0.17750543,71.123998,119.82707)">
              <path
                 id="path33666-9"
                 style="fill:url(#linearGradient37149-5);fill-opacity:1;fill-rule:evenodd;stroke-width:0.315986"
                 d="M 65.487787,74.676857 A 36.850776,36.850776 0 0 0 28.63708,111.52764 36.850776,36.850776 0 0 0 60.434534,148.01609 l -13.091302,-13.09121 0.639774,-19.35673 -1.781779,7.8368 -9.307407,-9.30749 3.464113,-2.45816 7.625073,3.92885 -2.9291,-5.22051 6.111755,-18.921003 9.453135,-5.4637 25.546141,25.546143 -2.52109,-23.285493 18.343283,18.343283 A 36.850776,36.850776 0 0 0 65.488137,74.676857 Z" />
              <path
                 id="path33606-9"
                 style="fill:#5337b9;fill-opacity:1;fill-rule:evenodd;stroke-width:0.315986"
                 d="m 101.98679,106.56687 -18.343293,-18.343283 2.52109,23.285493 -25.54614,-25.546143 -9.453134,5.4637 -6.111756,18.921003 2.9291,5.22051 -0.639774,19.35673 13.091302,13.09121 a 36.850776,36.850776 0 0 0 5.053252,0.3626 36.850776,36.850776 0 0 0 36.850793,-36.8507 36.850776,36.850776 0 0 0 -0.35214,-4.96077 z" />
              <path
                 id="path53-0"
                 style="fill:#4629ae;fill-opacity:1;fill-rule:evenodd;stroke-width:0.315986"
                 d="m 40.357584,111.6393 -3.464112,2.45816 9.307407,9.30749 1.781778,-7.8368 z" />
              <path
                 id="path33645-7"
                 style="fill:#7755f5;fill-opacity:1;fill-rule:evenodd;stroke-width:0.315986"
                 d="m 75.410557,89.433227 -5.05334,1.66942 8.04345,8.04407 1.59908,-5.46492 z" />
              <path
                 id="path33668-6"
                 style="fill:#4629ae;fill-opacity:1;fill-rule:evenodd;stroke-width:0.315986"
                 d="m 75.410557,89.433227 4.58919,4.24857 -1.59908,5.46492 -8.04345,-8.04407 z" />
              <g
                 aria-label="{}"
                 id="text1281-3"
                 style="font-size:46.3909px;line-height:1.25;font-family:monospace;-inkscape-font-specification:monospace;fill:#ffffff;stroke-width:1.15977"
                 transform="matrix(1.1942812,0,0,1.1942812,-57.483829,-55.222461)">
                <path
                   d="m 98.88979,156.70333 v 4.3265 h -3.397771 q -5.6403,0 -7.565704,-1.67623 -1.902751,-1.67624 -1.902751,-6.68229 v -4.87014 q 0,-3.42042 -1.223198,-4.71157 -1.200546,-1.31381 -4.371799,-1.31381 h -1.404412 v -4.32649 h 1.404412 q 3.171253,0 4.371799,-1.29115 1.223198,-1.29116 1.223198,-4.73423 v -4.87014 q 0,-5.00605 1.902751,-6.65963 1.925404,-1.67623 7.565704,-1.67623 h 3.397771 v 4.30384 h -2.786173 q -2.355787,0 -3.148601,0.95137 -0.792813,0.95138 -0.792813,4.19059 v 4.73423 q 0,3.73754 -1.109938,5.25522 -1.109939,1.51767 -3.964067,1.94805 2.854128,0.47569 3.964067,2.01601 1.109938,1.54032 1.109938,5.25522 v 4.64362 q 0,3.26186 0.792813,4.21324 0.792814,0.97402 3.148601,0.97402 z"
                   style="font-weight:bold;-inkscape-font-specification:'monospace, Bold'"
                   id="path33435-7" />
                <path
                   d="m 107.04444,156.70333 h 2.74087 q 2.35579,0 3.17125,-0.97402 0.81547,-0.97403 0.81547,-4.21324 v -4.64362 q 0,-3.7149 1.10994,-5.25522 1.10993,-1.54032 3.94141,-2.01601 -2.85413,-0.43038 -3.96407,-1.94805 -1.08728,-1.51768 -1.08728,-5.25522 v -4.73423 q 0,-3.19391 -0.81547,-4.16793 -0.79281,-0.97403 -3.17125,-0.97403 h -2.74087 v -4.30384 h 3.39777 q 5.61765,0 7.49775,1.67623 1.90275,1.65358 1.90275,6.65963 v 4.87014 q 0,3.42042 1.2232,4.73423 1.24585,1.29115 4.43975,1.29115 h 1.40441 v 4.32649 h -1.40441 q -3.1939,0 -4.43975,1.31381 -1.2232,1.3138 -1.2232,4.71157 v 4.87014 q 0,5.00605 -1.90275,6.68229 -1.8801,1.67623 -7.49775,1.67623 h -3.39777 z"
                   style="font-weight:bold;-inkscape-font-specification:'monospace, Bold'"
                   id="path33437-6" />
              </g>
            </g>
          </g>
        </g>
      </g>
    </g>
  </g>
</svg>
