<?xml version="1.0" encoding="utf-8"?>
<!-- Uploaded to: SVG Repo, www.svgrepo.com, Generator: SVG Repo Mixer Tools -->
<svg width="800px" height="800px" viewBox="0 0 1024 1024" class="icon"  version="1.1" xmlns="http://www.w3.org/2000/svg"><path d="M686.8 235.9a27 28.7 0 1 0 54 0 27 28.7 0 1 0-54 0Z" fill="#005BFF" /><path d="M686.8 461.3a27 28.7 0 1 0 54 0 27 28.7 0 1 0-54 0Z" fill="#005BFF" /><path d="M774.3 180.3H180.2c-16.5 0-30 13.5-30 30v51.3c0 16.5 13.5 30 30 30h594.1c16.5 0 30-13.5 30-30v-51.3c0-16.6-13.5-30-30-30z m-327.8 65.6H207.1c-5.5 0-10-4.5-10-10s4.5-10 10-10h239.4c5.5 0 10 4.5 10 10s-4.5 10-10 10z m267.3 18.8c-14.9 0-27-12.9-27-28.7s12.1-28.7 27-28.7 27 12.9 27 28.7-12.1 28.7-27 28.7zM804.3 435.6c0-16.5-13.5-30-30-30H180.2c-16.5 0-30 13.5-30 30V487c0 16.5 13.5 30 30 30h394.7l32.7-20c5.9-3.6 12.7-5.6 19.7-5.7h0.7c6.4 0 12.9 1.6 18.6 4.5 6.1 3.1 11.3 7.7 15.1 13.3l5.4 7.9h48.8l4.3-8.4c2.4-4.7 5.7-8.8 9.9-12.1 3.9-3.2 8.4-5.5 13.3-6.9 3.6-1.1 7.4-1.6 11.1-1.6 6.4 0 12.8 1.6 18.5 4.5l25 12.8c3.9-5.1 6.2-11.4 6.2-18.3v-51.4zM713.8 490c-14.9 0-27-12.9-27-28.7s12.1-28.7 27-28.7 27 12.9 27 28.7-12.1 28.7-27 28.7z" fill="#FFFFFF" /><path d="M774.3 140.3H180.2c-38.6 0-70 31.4-70 70v51.3c0 38.6 31.4 70 70 70h594.1c38.6 0 70-31.4 70-70v-51.3c0-38.6-31.4-70-70-70z m30 121.3c0 16.5-13.5 30-30 30H180.2c-16.5 0-30-13.5-30-30v-51.3c0-16.5 13.5-30 30-30h594.1c16.5 0 30 13.5 30 30v51.3z" fill="#005BFF" /><path d="M446.5 225.9H207.1c-5.5 0-10 4.5-10 10s4.5 10 10 10h239.4c5.5 0 10-4.5 10-10s-4.5-10-10-10z" fill="#005BFF" /><path d="M504.5 731.1c-4-5.8-6.4-12.4-6.9-19.4l-3.5-47.3c-0.8-10.4 2.6-20.3 9.5-27.9 1.9-2.1 3.9-3.9 6.1-5.5H180.2c-16.5 0-30 13.5-30 30v51.3c0 16.5 13.5 30 30 30h336.1c-4.7-2.9-8.7-6.7-11.8-11.2z" fill="#E6E6E6" /><path d="M569.8 762.3c-3.1-4.6-5.9-9.4-8.5-14.3l-22.4 0.6h-1c-6.4 0-12.8-1.5-18.5-4.5-1.1-0.5-2.1-1.1-3.1-1.8H180.2c-16.5 0-30-13.5-30-30V661c0-16.5 13.5-30 30-30h329.5c1.9-1.4 4-2.6 6.2-3.6 4.8-2.2 10-3.4 15.4-3.5l21.3-0.6c0.4-1.1 0.8-2.1 1.2-3.2 1.7-4.2 3.5-8.4 5.6-12.3 2.5-4.9 5.4-9.8 8.6-14.6l-1.5-2.3H180.2c-38.6 0-70 31.4-70 70v51.3c0 38.6 31.4 70 70 70h399.7l2-3.9c-4.4-5-8.4-10.4-12.1-16z" fill="#005BFF" /><path d="M769.9 661.6c-3.2-9-8-17.2-14.4-24.4-2-2.2-4-4.2-6.2-6.2-4.8-4.2-10.1-7.9-15.9-10.9-8.4-4.3-17.4-7-26.7-8-9.6-1-19.1-0.2-28.3 2.5-4.7 1.4-9.1 3.2-13.3 5.5-3.9 2.1-7.7 4.6-11.1 7.5-1.3 1.1-2.5 2.2-3.7 3.4-5.1 5-9.3 10.7-12.6 17-4 7.9-6.4 16.3-7 25.2-0.7 9.2 0.6 18.4 3.7 27.4 3.2 9 8 17.2 14.4 24.4 6.2 7 13.7 12.7 22.1 17 0.2 0.1 0.4 0.2 0.7 0.3 8.3 4.1 17 6.7 26.1 7.7 9.6 1 19.1 0.2 28.3-2.5 4.5-1.3 8.7-3 12.7-5.1 4.2-2.2 8.1-4.8 11.7-7.8 6.8-5.7 12.3-12.5 16.3-20.4 4-7.9 6.4-16.3 7-25.2 0.6-9.2-0.6-18.4-3.8-27.4z" fill="#FFFFFF" /><path d="M876.5 654.4c-0.1-2-1.6-3.9-3.6-5-1-0.5-2.1-0.8-3.2-0.8l-26.4 0.7-18.4 0.5-0.7-1.7-3.8-8.7c-1.6-3.8-3.4-7.4-5.4-11-5.8-10.4-13-20-21.5-28.6l-7.8-7.9-0.8-0.8L805 552c0.4-0.7 0.5-1.5 0.4-2.3-0.2-1.8-1.6-3.7-3.6-4.8l-44-22.6c-1-0.5-2.1-0.8-3.2-0.8-2 0-3.7 0.9-4.4 2.3l-17 33.1-3.2 6.1-12-1.9c-6.9-1.1-13.9-1.6-20.8-1.6-9.1 0-18.3 1-27.1 2.9l-11.1 2.4-5.3-7.8-19.8-29c-0.7-1-1.6-1.8-2.6-2.3-1-0.5-2.2-0.8-3.3-0.8-1.1 0-2.1 0.3-2.9 0.8l-40.5 24.8c-1 0.6-1.6 1.4-1.8 2.5-0.3 1.3 0 2.6 0.9 3.9l0.2 0.2 23.2 34 2.3 3.4-7.7 9.7c-4.1 5.2-7.7 10.6-10.8 16.1-0.6 1-1.1 2-1.6 3-1.3 2.5-2.5 5.2-3.6 7.9-1.8 4.3-3.3 8.7-4.6 13.3l-3.3 11.9-45.5 1.2c-1.5 0-2.8 0.6-3.7 1.5-0.7 0.8-1 1.8-1 2.9l3.5 47.3c0.1 2 1.6 3.9 3.6 5 1 0.5 2.1 0.8 3.2 0.8l44.7-1.2 4.5 10.4c2.7 6.3 6 12.3 9.7 18.1 4.6 7.1 9.9 13.8 15.8 20 0.5 0.5 1 1 1.4 1.5l8.6 8.6-5.1 9.9-15 29.3c-0.7 1.4-0.4 2.8-0.1 3.6 0.6 1.5 1.7 2.7 3.3 3.5l44 22.6c1 0.5 2.1 0.8 3.2 0.8 2 0 3.7-0.9 4.4-2.3l20.1-39.2 12 1.9c6.9 1.1 13.9 1.6 20.8 1.6 9.1 0 18.3-1 27.1-2.9l11.1-2.4 25.1 36.8c0.7 1 1.6 1.8 2.6 2.3 1 0.5 2.2 0.8 3.3 0.8 1.1 0 2.1-0.3 2.9-0.8l40.5-24.8c1-0.6 1.6-1.4 1.8-2.5 0.3-1.6-0.3-3-0.9-3.9l-20.9-30.7-4.7-7 7.2-9 0.5-0.6c4.9-6.1 9-12.5 12.4-19.1 2.3-4.4 4.3-9.2 6-14.1 0.8-2.3 1.6-4.7 2.2-7.1l3.4-11.9 14.4-0.4 31.1-0.8c1.5 0 2.8-0.6 3.7-1.5 0.7-0.8 1-1.8 1-2.9l-3.5-47.3zM661.3 760.7c-9.4-4.8-17.8-11-25-18.4-1.1-1.1-2.1-2.2-3.2-3.4-8.3-9.3-14.5-19.9-18.6-31.5-4.1-11.7-5.7-23.7-4.9-35.8 0.8-11.7 3.9-22.9 9.3-33.3 1.3-2.6 2.7-5 4.3-7.4 2.5-3.8 5.3-7.5 8.3-10.9 2.8-3.1 5.8-6 9-8.6 9.3-7.7 20-13.4 31.9-16.9 6.5-1.9 13.1-3.1 19.8-3.6 4.4-0.3 8.8-0.3 13.3 0l3.3 0.3c11.9 1.3 23.4 4.7 34.1 10.2 9.5 4.9 18 11.1 25.3 18.7 1 1 1.9 2 2.9 3.1 2.3 2.6 4.4 5.2 6.4 8 5.2 7.2 9.3 15.1 12.2 23.5 4.1 11.7 5.7 23.7 4.9 35.8-0.8 11.7-3.9 22.9-9.3 33.3-3.5 6.8-7.8 13-12.9 18.6-2.7 3-5.6 5.7-8.7 8.3-5.6 4.6-11.7 8.5-18.2 11.7-4.4 2.1-8.9 3.9-13.7 5.3-11.8 3.5-24.1 4.6-36.4 3.3-10.7-1.1-21-4-30.7-8.6-1.1-0.6-2.2-1.1-3.4-1.7z" fill="#FFFFFF" /><path d="M913.5 699.2l-3.5-47.3c-0.5-6.9-2.9-13.6-6.9-19.4-3.8-5.5-9-10-14.9-13-5.7-2.9-12.1-4.5-18.5-4.5h-1l-22.4 0.6c-5.7-10.8-12.6-21-20.6-30.4l9.2-17.9c2.4-4.7 3.8-9.8 4.1-15.1 0.3-5-0.5-10-2.2-14.8-1.3-3.6-3.1-7-5.3-10.1 8.1-11.4 12.8-25.3 12.8-40.3v-51.3c0-38.6-31.4-70-70-70H180.2c-38.6 0-70 31.4-70 70V487c0 38.6 31.4 70 70 70h369.1c0.1 1.4 0.3 2.7 0.6 4.1 1 5.2 3.1 10.1 6.1 14.5l10.5 15.4 1.5 2.3c-3.2 4.8-6.1 9.6-8.6 14.6-2 3.9-3.9 8.1-5.6 12.3-0.4 1.1-0.8 2.1-1.2 3.2l-21.3 0.6c-5.4 0.1-10.6 1.3-15.4 3.5-2.2 1-4.3 2.2-6.2 3.6-2.2 1.6-4.3 3.4-6.1 5.5-6.9 7.7-10.3 17.6-9.5 27.9l3.5 47.3c0.5 6.9 2.9 13.6 6.9 19.4 3.1 4.5 7.2 8.3 11.8 11.3 1 0.6 2 1.2 3.1 1.8 5.7 2.9 12.1 4.5 18.5 4.5h1l22.4-0.6c2.6 4.9 5.4 9.7 8.5 14.3 3.7 5.6 7.7 10.9 12.1 16.1l-2 3.9-7.2 14c-2.4 4.7-3.8 9.8-4.1 15.1-0.3 5 0.5 10 2.2 14.8 3.4 9.7 10.4 17.6 19.7 22.4l44 22.6c5.8 2.9 12.2 4.5 18.5 4.5 3.8 0 7.5-0.5 11.1-1.6 4.9-1.4 9.4-3.8 13.3-6.9 4.1-3.3 7.5-7.4 9.9-12.1l9.2-17.9c4.6 0.4 9.2 0.6 13.8 0.6 7.7 0 15.3-0.5 22.9-1.6l12.6 18.5c3.8 5.6 9 10.2 15.1 13.3 5.7 2.9 12.2 4.5 18.6 4.5h0.7c7-0.1 13.8-2.1 19.7-5.7l40.5-24.8c8.9-5.4 14.9-14 17.1-24.1 1.1-5 1.1-10.2 0.1-15.3-1-5.2-3.1-10.1-6.1-14.5l-12-17.6c3.2-4.8 6.1-9.6 8.6-14.6 2.5-4.9 4.8-10.1 6.8-15.5l21.3-0.6c5.4-0.1 10.6-1.3 15.4-3.5 4.7-2.2 8.9-5.2 12.3-9 7-8 10.4-17.9 9.6-28.3zM150.2 487v-51.3c0-16.5 13.5-30 30-30h594.1c16.5 0 30 13.5 30 30V487c0 6.9-2.3 13.2-6.2 18.3l-25-12.8c-5.8-2.9-12.2-4.5-18.5-4.5-3.8 0-7.5 0.5-11.1 1.6-4.9 1.4-9.4 3.8-13.3 6.9-4.1 3.3-7.5 7.4-9.9 12.1L716 517h-48.8l-5.4-7.9c-3.8-5.6-9-10.2-15.1-13.3-5.8-2.9-12.2-4.5-18.6-4.5h-0.7c-7 0.1-13.8 2.1-19.7 5.7L575 517H180.2c-16.5 0-30-13.5-30-30z m728.9 217.7c-0.9 1-2.1 1.5-3.7 1.5l-31.1 0.8-14.4 0.4-3.4 11.9c-0.7 2.4-1.4 4.8-2.2 7.1-1.7 4.9-3.7 9.7-6 14.1-3.3 6.5-7.5 12.9-12.4 19.1l-0.5 0.6-7.2 9 4.7 7 20.9 30.7c0.6 0.9 1.2 2.3 0.9 3.9-0.2 1-0.9 1.9-1.8 2.5L782.4 838c-0.8 0.5-1.8 0.8-2.9 0.8-1.1 0-2.2-0.3-3.3-0.8-1.1-0.5-2-1.3-2.6-2.3l-25.1-36.8-11.1 2.4c-8.9 1.9-18 2.9-27.1 2.9-6.9 0-13.9-0.6-20.8-1.6l-12-1.9-20.1 39.2c-0.7 1.4-2.4 2.3-4.4 2.3-1.1 0-2.2-0.3-3.2-0.8l-44-22.6c-1.6-0.8-2.7-2.1-3.3-3.5-0.3-0.7-0.6-2.2 0.1-3.6l15-29.3 5.1-9.9-8.6-8.6c-0.5-0.5-1-1-1.4-1.5-6-6.2-11.3-12.9-15.8-20-3.7-5.8-7-11.8-9.7-18.1l-4.5-10.4-44.7 1.2c-1.1 0-2.2-0.3-3.2-0.8-2.1-1.1-3.5-3-3.6-5l-3.5-47.3c-0.1-1.1 0.2-2.1 1-2.9 0.9-1 2.1-1.5 3.7-1.5l45.5-1.2 3.3-11.9c1.3-4.6 2.8-9.1 4.6-13.3 1.1-2.7 2.3-5.3 3.6-7.9 0.5-1 1.1-2 1.6-3 3-5.5 6.7-10.9 10.8-16.1l7.7-9.7-2.3-3.4-23.2-34-0.2-0.2c-0.9-1.3-1.2-2.6-0.9-3.9 0.2-1 0.9-1.9 1.8-2.5l40.5-24.8c0.8-0.5 1.8-0.8 2.9-0.8 1.1 0 2.2 0.3 3.3 0.8 1.1 0.5 2 1.3 2.6 2.3l19.8 29 5.3 7.8 11.1-2.4c8.9-1.9 18-2.9 27.1-2.9 6.9 0 13.9 0.6 20.8 1.6l12 1.9 3.1-6.1 17-33.1c0.7-1.4 2.4-2.3 4.4-2.3 1.1 0 2.2 0.3 3.2 0.8l44 22.6c2 1 3.4 2.9 3.6 4.8 0.1 0.8 0 1.6-0.4 2.3l-20.1 39.2 0.8 0.8 7.8 7.9c8.6 8.7 15.8 18.2 21.5 28.6 2 3.6 3.8 7.2 5.4 11l3.8 8.7 0.7 1.7 18.4-0.5 26.4-0.7c1.1 0 2.2 0.3 3.2 0.8 2.1 1.1 3.5 3 3.6 5l3.5 47.3c0.1 1.1-0.2 2.1-0.9 2.9z" fill="#005BFF" /><path d="M692.2 591h13.3c-4.5-0.3-8.9-0.3-13.3 0z" fill="#06F3FF" /><path d="M789.7 654.7c-2.9-8.4-7.1-16.3-12.2-23.5-2-2.8-4.1-5.4-6.4-8-0.9-1-1.9-2.1-2.9-3.1-7.3-7.5-15.8-13.8-25.3-18.7-10.7-5.5-22.2-8.9-34.1-10.2l-3.3-0.3h-13.3c-6.7 0.5-13.3 1.6-19.8 3.6-11.9 3.5-22.6 9.2-31.9 16.9-3.2 2.7-6.2 5.6-9 8.6-3.1 3.4-5.8 7-8.3 10.9-1.5 2.4-3 4.9-4.3 7.4-5.3 10.4-8.4 21.6-9.3 33.3-0.9 12.1 0.8 24.1 4.9 35.8 4.1 11.6 10.3 22.2 18.6 31.5 1 1.2 2.1 2.3 3.2 3.4 7.3 7.4 15.7 13.6 25 18.4 1.1 0.6 2.2 1.1 3.4 1.6 9.8 4.5 20.1 7.4 30.7 8.6 12.3 1.3 24.6 0.2 36.4-3.3 4.8-1.4 9.3-3.2 13.7-5.3 6.5-3.1 12.6-7 18.2-11.7 3.1-2.6 6-5.4 8.7-8.3 5.1-5.6 9.4-11.8 12.9-18.6 5.3-10.4 8.4-21.6 9.3-33.3 0.9-12-0.8-24-4.9-35.7z m-16 34.3c-0.6 8.8-3 17.3-7 25.2-4 7.9-9.5 14.7-16.3 20.4-3.6 3-7.5 5.6-11.7 7.8-4 2.1-8.2 3.8-12.7 5.1-9.2 2.7-18.7 3.6-28.3 2.5-9.1-1-17.8-3.6-26.1-7.7-0.2-0.1-0.4-0.2-0.7-0.3-8.4-4.3-15.9-10.1-22.1-17-6.4-7.2-11.3-15.4-14.4-24.4-3.1-9-4.4-18.2-3.7-27.4 0.6-8.8 3-17.3 7-25.2 3.3-6.4 7.5-12.1 12.6-17 1.2-1.2 2.4-2.3 3.7-3.4 3.4-2.9 7.2-5.4 11.1-7.5 4.2-2.2 8.6-4.1 13.3-5.5 9.2-2.7 18.7-3.6 28.3-2.5 9.3 1 18.3 3.7 26.7 8 5.8 3 11.1 6.6 15.9 10.9 2.2 1.9 4.3 4 6.2 6.2 6.4 7.2 11.3 15.4 14.4 24.4 3.2 9 4.4 18.2 3.8 27.4z" fill="#06F3FF" /></svg>